HIERARCHY
ROOT Hips
{
	OFFSET -3.958830 18.904000 13.208200
	CHANNELS 6 Xposition Yposition Zposition Zrotation Yrotation Xrotation 
	JOINT LHipJoint
	{
		OFFSET 0.000000 0.000000 0.000000
		CHANNELS 3 Zrotation Yrotation Xrotation
		JOINT LeftUpLeg
		{
			OFFSET 1.800000 -1.400000 0.085000
			CHANNELS 3 Zrotation Yrotation Xrotation
			JOINT LeftLeg
			{
				OFFSET 2.215000 -6.000000 0.000000
				CHANNELS 3 Zrotation Yrotation Xrotation
				JOINT LeftFoot
				{
					OFFSET 2.500000 -6.900000 0.000000
					CHANNELS 3 Zrotation Yrotation Xrotation
					JOINT LeftToeBase
					{
						OFFSET 0.200000 -0.500000 1.950000
						CHANNELS 3 Zrotation Yrotation Xrotation
						End Site
						{
							OFFSET 0.000000 0.000000 0.000000
						}
					}
				}
			}
		}
	}
	JOINT RHipJoint
	{
		OFFSET 0.000000 0.000000 0.000000
		CHANNELS 3 Zrotation Yrotation Xrotation
		JOINT RightUpLeg
		{
			OFFSET -1.800000 -1.400000 0.085000
			CHANNELS 3 Zrotation Yrotation Xrotation
			JOINT RightLeg
			{
				OFFSET -2.215000 -6.000000 0.000000
				CHANNELS 3 Zrotation Yrotation Xrotation
				JOINT RightFoot
				{
					OFFSET -2.500000 -6.900000 0.000000
					CHANNELS 3 Zrotation Yrotation Xrotation
					JOINT RightToeBase
					{
						OFFSET -0.200000 -0.500000 1.950000
						CHANNELS 3 Zrotation Yrotation Xrotation
						End Site
						{
							OFFSET 0.000000 0.000000 0.000000
						}
					}
				}
			}
		}
	}
	JOINT LowerBack
	{
		OFFSET 0.000000 0.000000 0.000000
		CHANNELS 3 Zrotation Yrotation Xrotation
		JOINT Spine
		{
			OFFSET -0.087000 1.940000 -0.288900
			CHANNELS 3 Zrotation Yrotation Xrotation
			JOINT Spine1
			{
				OFFSET 0.000000 1.950000 0.060000
				CHANNELS 3 Zrotation Yrotation Xrotation
				JOINT Neck
				{
					OFFSET 0.000000 0.000000 0.000000
					CHANNELS 3 Zrotation Yrotation Xrotation
					JOINT Neck1
					{
						OFFSET 0.000000 1.600000 0.340000
						CHANNELS 3 Zrotation Yrotation Xrotation
						JOINT Head
						{
							OFFSET 0.000000 1.667000 -0.240000
							CHANNELS 3 Zrotation Yrotation Xrotation
							End Site
							{
								OFFSET 0.000000 0.000000 0.000000
							}
						}
					}
				}
				JOINT LeftShoulder
				{
					OFFSET 0.000000 0.000000 0.000000
					CHANNELS 3 Zrotation Yrotation Xrotation
					JOINT LeftArm
					{
						OFFSET 2.700000 1.550000 -0.730000
						CHANNELS 3 Zrotation Yrotation Xrotation
						JOINT LeftForeArm
						{
							OFFSET 5.450000 0.000000 0.000000
							CHANNELS 3 Zrotation Yrotation Xrotation
							JOINT LeftHand
							{
								OFFSET 3.450000 0.000000 0.000000
								CHANNELS 3 Zrotation Yrotation Xrotation
								JOINT LeftHandIndex1
								{
									OFFSET 0.750000 0.000000 0.000000
									CHANNELS 3 Zrotation Yrotation Xrotation
									End Site
									{
										OFFSET 0.000000 0.000000 0.000000
									}
								}
							}
						}
					}
				}
				JOINT RightShoulder
				{
					OFFSET 0.000000 0.000000 0.000000
					CHANNELS 3 Zrotation Yrotation Xrotation
					JOINT RightArm
					{
						OFFSET -2.700000 1.550000 -0.730000
						CHANNELS 3 Zrotation Yrotation Xrotation
						JOINT RightForeArm
						{
							OFFSET -5.450000 0.000000 0.000000
							CHANNELS 3 Zrotation Yrotation Xrotation
							JOINT RightHand
							{
								OFFSET -3.450000 0.000000 0.000000
								CHANNELS 3 Zrotation Yrotation Xrotation
								JOINT RightHandIndex1
								{
									OFFSET -0.750000 0.000000 0.000000
									CHANNELS 3 Zrotation Yrotation Xrotation
									End Site
									{
										OFFSET 0.000000 0.000000 0.000000
									}
								}
							}
						}
					}
				}
			}
		}
	}
}
MOTION
Frames: 13
Frame Time: 0.016667
-0.339830 13.320260 -0.965130 -57.466466 17.267745 -55.993707 -15.659333 12.425201 5.214882 6.682367 -8.306058 -32.448145 -18.890167 25.620316 60.401387 1.557022 13.964708 -0.088117 0.296290 0.104460 0.274120 18.021949 -9.178990 2.839014 2.023850 10.611585 -20.519747 -31.027834 10.726232 59.848923 -1.940036 -9.753494 1.125358 0.089400 0.261240 0.058020 -2.520797 -3.735124 -8.740190 8.210438 -0.241354 62.161609 -3.572748 5.181333 22.383489 6.798404 6.629473 -16.529730 9.101787 -2.192680 48.733406 11.901940 -2.049430 -14.457670 -21.064321 -29.088163 11.117200 -20.767100 -2.726748 -1.155168 10.635867 -3.079107 -1.372647 -3.714395 2.605374 0.751310 -0.069930 0.131540 0.088880 6.084318 27.519606 11.235451 -3.475459 -11.014944 -18.475742 -47.161627 21.131918 -11.060608 2.526382 -1.591742 -0.329920 0.492670 0.102580 -0.169970 
-0.331480 13.338410 -0.989450 -57.474391 17.263575 -56.934308 -15.651927 12.539514 5.055289 5.980134 -7.962567 -31.706028 -17.840543 24.318151 59.084334 1.459987 13.466396 0.033685 0.314530 0.133300 0.296220 18.014281 -9.173799 2.933378 1.403271 11.372605 -21.113369 -27.027568 8.786513 65.057718 -2.014223 -10.068675 1.030305 0.076960 0.230060 0.093860 -2.527114 -3.798020 -8.712637 8.353545 -0.130268 63.594447 -3.584769 5.174428 21.897704 6.810396 7.184078 -16.518817 10.155329 -2.879773 49.072427 11.261030 -1.849340 -15.461230 -21.678005 -29.479332 11.253525 -20.210977 -2.648551 -1.264454 10.857093 -2.945359 -1.364644 -3.715806 2.619616 0.749220 -0.075550 0.171180 0.082750 6.617275 27.624176 10.981998 -4.177356 -10.945313 -18.740855 -47.838790 22.130018 -11.486328 2.537160 -1.584823 -0.282150 0.462930 0.089400 -0.163300 
-0.314960 13.367690 -1.053450 -56.685637 15.958534 -58.137490 -15.579645 12.682511 4.528491 5.175948 -6.146122 -29.998212 -15.491530 21.378238 54.732347 1.083486 12.157649 0.367940 0.295910 0.114270 0.273130 18.068946 -9.074611 3.391719 0.443909 14.130866 -22.877012 -18.718414 3.302503 74.584454 -2.136161 -10.741705 0.829698 0.069000 0.224710 0.083680 -2.738173 -3.588739 -8.741915 9.804581 -0.683865 65.981561 -4.909729 5.020276 21.665904 6.945491 6.618847 -16.897041 8.804266 -1.990101 50.244895 11.895810 -1.642840 -15.614700 -22.706843 -30.632711 11.673817 -19.536494 -1.802262 -1.588480 11.874150 -2.459912 -1.395977 -3.718095 2.618416 0.775430 -0.088380 0.172380 0.069830 7.347697 29.107641 10.753260 -6.346947 -11.587986 -19.615420 -48.627129 24.055221 -12.071501 2.603243 -1.592714 -0.295770 0.468340 0.112890 -0.171630 
-0.291130 13.369700 -1.131980 -56.395905 14.059807 -59.334655 -15.516561 12.641620 4.066893 4.163776 -5.048482 -29.911657 -10.875600 19.046013 55.341064 0.950389 11.526068 0.542219 0.329920 0.172860 0.273480 18.148907 -8.821982 3.903552 -2.284262 16.817767 -25.526122 -4.983061 -8.496398 79.182216 -2.273463 -11.488102 0.598571 0.081320 0.202970 0.097030 -2.961795 -3.351040 -8.865340 11.829523 -2.146510 68.206897 -6.597643 4.522824 21.507277 7.441218 5.966123 -17.061955 7.482066 -1.109374 50.724974 12.181990 -1.389070 -15.858520 -23.869264 -31.344220 12.017266 -19.130376 -1.067931 -1.772720 12.688232 -1.759826 -1.322814 -3.696889 2.675559 0.758130 -0.107000 0.202820 0.092410 7.565710 30.192134 10.257147 -9.096241 -9.960447 -20.120245 -48.438542 24.847704 -12.111740 2.674840 -1.628133 -0.251350 0.447470 0.081520 -0.144160 
-0.283440 13.359600 -1.191320 -56.594220 12.738159 -59.913501 -15.485456 12.384417 3.716772 2.076453 -4.971520 -31.661660 -4.904696 16.322419 58.192270 0.870592 11.198225 0.656251 0.350370 0.192350 0.260220 18.225131 -8.326457 4.538077 -8.242689 19.429760 -28.375316 13.107145 -23.711946 78.310416 -2.823754 -13.642041 0.050043 0.088160 0.222960 0.104650 -3.119581 -3.279821 -9.099007 13.829651 -3.734131 69.365627 -8.068224 3.989465 21.321098 8.132170 5.169444 -17.122091 5.806249 -0.499954 50.829389 12.324040 -1.950510 -15.386270 -24.971910 -31.704288 12.142040 -18.610483 -0.829757 -1.898573 13.745756 -1.061795 -1.304539 -3.708815 2.714182 0.738730 -0.102930 0.196470 0.125790 7.360847 31.103010 9.753796 -11.462993 -8.422517 -20.498313 -48.332369 25.770806 -12.196274 2.694776 -1.653523 -0.235200 0.451160 0.065170 -0.119470 
-0.267200 13.264420 -1.217160 -57.087336 11.095428 -59.015281 -15.384645 11.781205 3.516916 -0.926232 -5.626972 -34.980853 2.036825 12.593113 61.165148 0.753122 10.869273 0.749231 0.321170 0.143800 0.203480 18.388466 -7.814831 5.283941 -15.654003 20.837559 -31.960649 35.004996 -38.200266 70.368071 -3.331971 -15.184274 -0.302196 0.075050 0.250600 0.107000 -3.497396 -2.748534 -9.395169 17.861732 -7.017701 67.712845 -11.373267 2.864992 20.835456 9.112221 4.122615 -17.338225 3.699150 0.223548 51.456491 12.471120 -3.203470 -13.993050 -25.576423 -31.439561 12.117761 -19.174993 0.058004 -1.993850 14.213781 -1.063380 -1.308515 -3.725911 2.762525 0.722430 -0.091850 0.149660 0.119890 6.204270 31.137551 9.171200 -11.922182 -5.398850 -20.589433 -48.117581 27.212549 -12.583620 2.606106 -1.640824 -0.242450 0.435490 0.106570 -0.110330 
-0.245990 13.213610 -1.266950 -55.359114 11.133698 -58.576959 -15.389100 11.561000 3.482339 -4.546505 -6.172212 -36.332662 6.069077 10.172395 61.208052 0.633093 10.511969 0.857588 0.273390 0.063930 0.178030 18.396786 -7.534054 5.628873 -21.757138 19.176891 -32.683529 62.389733 -48.039267 54.672335 -3.260309 -14.100855 -0.037341 0.051610 0.282730 0.125020 -3.502055 -2.821893 -9.519195 17.434591 -6.790700 67.773461 -12.435800 2.938703 20.680463 9.701080 3.925207 -17.621122 3.160172 0.210643 52.200434 11.966700 -3.924470 -13.747090 -26.082210 -31.664917 12.260698 -18.780432 0.160489 -1.761462 14.143895 -0.391718 -1.287492 -3.790212 2.727042 0.737870 -0.075250 0.123960 0.088680 5.465025 32.090260 8.667041 -13.379979 -3.274864 -21.099774 -47.686437 27.995514 -12.624143 2.580717 -1.602190 -0.271290 0.446950 0.170510 -0.121370 
-0.207080 13.183370 -1.318480 -50.808855 10.555213 -58.376786 -15.415786 11.718471 3.438658 -7.634675 -5.616191 -36.701402 8.198707 9.073445 59.080133 0.476471 9.974721 1.006609 0.280120 0.047830 0.220540 18.327448 -7.614931 5.589948 -24.882450 17.693370 -30.845137 82.471513 -52.352025 43.716635 -3.078122 -12.848360 0.267766 0.056070 0.259330 0.126400 -3.366273 -3.004842 -9.463449 14.600181 -3.808468 69.448993 -12.794531 4.294946 20.429260 10.092655 4.179346 -18.097890 3.377756 0.435271 53.667369 11.291860 -3.575650 -14.446480 -27.096567 -32.240340 12.438908 -18.142853 0.538601 -1.734982 14.192837 0.172163 -1.282742 -3.815792 2.676407 0.780740 -0.089040 0.138300 0.059930 5.358420 33.926071 8.154376 -15.571928 -2.172256 -22.101880 -47.053413 29.202374 -12.660583 2.622109 -1.592124 -0.292280 0.459360 0.186340 -0.154860 
-0.209550 13.163930 -1.322250 -44.792295 9.788663 -56.791664 -15.494022 11.768851 3.486471 -10.202517 -5.215808 -39.268889 10.146253 8.716364 58.395305 0.383911 9.849132 1.023672 0.241910 0.010940 0.179350 18.254890 -7.568196 5.510778 -28.126571 16.344825 -30.478968 99.863537 -49.808578 32.013825 -2.887003 -11.946260 0.493219 0.067550 0.320700 0.124090 -3.131520 -3.222159 -9.455719 9.632641 1.429552 68.650814 -12.029100 6.923293 21.048642 10.269301 3.465434 -18.020878 2.120624 1.359732 53.769226 11.620260 -3.796980 -14.365410 -26.891179 -31.668158 12.228108 -18.335695 0.184587 -1.497885 13.905236 0.122615 -1.350632 -3.878875 2.625501 0.775650 -0.057450 0.098620 0.037310 4.570604 35.921551 7.526141 -16.676414 -0.219132 -23.510989 -47.810673 30.091377 -13.416831 2.673993 -1.583094 -0.331270 0.502430 0.247790 -0.148050 
-0.222830 13.058590 -1.319910 -40.453741 8.764553 -54.286140 -15.588744 11.383950 3.691633 -11.510966 -6.077161 -44.546610 11.937108 8.227989 59.437664 0.406467 9.999939 0.969715 0.273410 0.078440 0.121810 18.263155 -7.100752 5.712327 -32.011086 15.404007 -30.433320 110.408525 -40.381541 22.050385 -2.777447 -11.333307 0.675560 0.119820 0.370600 0.125390 -2.966552 -3.327792 -9.644907 6.391722 4.579239 66.293277 -11.319019 8.861337 21.066489 10.555592 1.810152 -16.853324 -0.377757 2.361616 51.400709 12.271530 -4.200430 -14.889380 -26.379876 -29.609581 11.384723 -20.088138 -1.666452 -1.301268 14.518891 0.148466 -1.388930 -3.888068 2.692343 0.723450 -0.036420 0.068540 0.087160 3.437961 36.430949 6.652009 -18.169236 2.434050 -23.587184 -48.501856 30.013126 -13.856137 2.630390 -1.590578 -0.317280 0.523470 0.242600 -0.101000 
-0.231210 12.982850 -1.334420 -39.351184 8.501648 -52.655707 -15.634442 10.861625 4.103294 -12.413928 -7.930061 -50.396892 15.493343 6.199601 61.333533 0.474633 10.221717 0.894576 0.311240 0.157880 0.095190 18.305512 -6.733246 5.802426 -33.969439 14.069452 -28.166476 116.454080 -34.560210 16.112618 -2.671266 -10.731117 0.849844 0.159130 0.386790 0.120430 -2.945661 -3.240514 -9.870584 6.080974 4.324056 64.730281 -11.603088 9.011623 21.404765 10.987992 0.396907 -16.603322 -2.768750 3.442039 50.264941 12.967910 -4.417890 -15.367110 -25.641918 -28.989906 11.252875 -21.774018 -2.391977 -1.249756 14.995632 0.036024 -1.387117 -3.865274 2.746365 0.681230 -0.037180 0.066770 0.121220 2.010682 37.148877 5.939301 -18.783642 4.319074 -23.856655 -48.527086 30.063911 -14.043379 2.624199 -1.609303 -0.285470 0.535240 0.220980 -0.057410 
-0.285310 12.877250 -1.316440 -35.715654 8.630077 -49.463042 -15.770198 10.219073 4.585846 -14.262212 -10.280748 -58.238808 19.438118 4.713892 64.489288 0.621870 10.895371 0.688624 0.281860 0.128000 0.046660 18.341728 -6.126524 5.995605 -38.920164 12.936857 -30.020022 121.640904 -32.104185 12.887822 -2.590597 -10.427313 0.960801 0.152720 0.436750 0.132890 -2.744688 -3.321495 -10.166910 2.522843 7.389282 62.025797 -10.505972 10.095493 20.094555 10.565780 -0.028011 -15.851012 -2.703403 3.635667 48.249709 13.068220 -4.132340 -14.094790 -23.406589 -27.280990 10.679164 -25.398814 -3.196857 -1.319046 15.916804 -0.608777 -1.444455 -3.892230 2.804043 0.638020 0.003290 0.023090 0.130320 0.677258 36.798681 5.502384 -18.368537 6.881128 -23.041882 -48.113826 30.461002 -14.213694 2.555148 -1.592489 -0.290150 0.521910 0.241960 -0.039570 
-0.298960 12.826340 -1.300300 -35.899597 8.214733 -49.217865 -15.756872 9.766994 4.982568 -14.181825 -11.989835 -63.419490 24.452321 1.657021 68.054882 0.825210 11.705737 0.444152 0.272670 0.116680 0.043470 18.408927 -5.989482 5.960406 -39.844887 12.703810 -27.488842 124.268137 -30.321500 10.666612 -2.517081 -10.087027 1.059342 0.133280 0.428340 0.142230 -2.869167 -2.948142 -10.363468 4.035868 6.043263 62.157299 -11.564825 10.024592 19.393463 10.751882 -0.051894 -16.098179 -2.624474 3.545079 48.874523 13.046160 -4.170600 -13.905770 -23.525967 -27.563622 11.058520 -26.028649 -2.432427 -1.681913 16.843599 -1.091977 -1.507909 -3.879322 2.831267 0.641430 0.001520 0.031250 0.123230 0.586257 37.191481 4.978609 -18.644334 8.390503 -22.619616 -46.386929 30.242019 -13.352235 2.563905 -1.569245 -0.277830 0.504910 0.245090 -0.038610 
